<svg width="73" height="72" viewBox="0 0 73 72" fill="none" xmlns="http://www.w3.org/2000/svg">
<g clip-path="url(#clip0_2142_251)">
<path d="M3.04163 3.08362H69.9585V68.9165H3.04163V3.08362Z" fill="url(#paint0_radial_2142_251)"/>
<path d="M3.04163 3.08358H69.9585V68.9164H3.04163V3.08358ZM0 71.9928H73.0001V0.00732422H0V71.9928ZM51.6475 34.708C53.1987 34.708 53.7462 34.708 53.8983 34.6465C53.8983 34.4312 53.9591 34.2773 53.9591 34.1235C53.9591 32.4622 53.1683 29.386 50.005 29.386C47.0849 29.386 45.838 31.97 45.5337 34.708H51.6475ZM45.473 38.9225C45.5338 43.0755 47.4805 45.8749 52.1038 45.8749C53.8984 45.8749 55.4496 45.629 57.0618 44.9214C57.2747 44.8292 57.4269 44.8599 57.4269 45.1367V48.9821C57.4269 49.2897 57.3357 49.4436 57.1228 49.5974C55.5107 50.3971 53.503 50.7664 51.009 50.7664C42.9791 50.7664 39.9677 44.7676 39.9677 38.0921C39.9677 30.832 43.6787 24.8948 50.2182 24.8948C56.8491 24.8948 59.1608 30.5244 59.1608 35.1081C59.1608 36.5848 59.0695 37.7845 58.9175 38.369C58.8567 38.6151 58.7654 38.7075 58.522 38.769C57.9136 38.8613 56.119 38.9842 53.4423 38.9842H45.473V38.9225ZM29.1698 35.7847C28.3181 32.37 26.2497 24.9253 25.4892 21.326H25.4284C24.7897 24.9253 23.1167 31.0163 21.8696 35.7847H29.1698ZM20.6225 40.7684L18.2196 49.9665C18.1588 50.2124 18.0676 50.3048 17.7633 50.3048H13.292C12.9879 50.3048 12.927 50.2126 12.9879 49.8435L21.6262 19.2957C21.7783 18.7421 21.8695 18.3113 21.9303 16.7732C21.9303 16.5579 22.0216 16.4657 22.1736 16.4657H28.5611C28.774 16.4657 28.8653 16.5272 28.9262 16.7732L38.5987 49.905C38.6595 50.1509 38.5987 50.3048 38.3554 50.3048H33.3367C33.0934 50.3048 32.9412 50.2126 32.8803 49.9974L30.3861 40.7685H20.6225V40.7684Z" fill="#D8A1FF"/>
</g>
<defs>
<radialGradient id="paint0_radial_2142_251" cx="0" cy="0" r="1" gradientUnits="userSpaceOnUse" gradientTransform="translate(25.0808 17.8368) scale(50.8568 49.7991)">
<stop stop-color="#442F55" stop-opacity="0.98"/>
<stop offset="1" stop-color="#12002C"/>
</radialGradient>
<clipPath id="clip0_2142_251">
<rect width="73" height="72" fill="white"/>
</clipPath>
</defs>
</svg>
