<svg width="69" height="83" viewBox="0 0 69 83" fill="none" xmlns="http://www.w3.org/2000/svg">
<path d="M34.458 82.7524L6.37999 74.901L0.122803 4.21069H68.8772L62.6136 74.8901L34.458 82.7524Z" fill="#264DE4"/>
<path d="M57.2511 70.3895L62.6036 9.9906H34.5V76.7427L57.2511 70.3895Z" fill="#2965F1"/>
<path d="M14.4671 36.2086L15.2384 44.8785H34.5V36.2086H14.4671ZM12.9169 18.6606L13.6993 27.3305H34.5V18.6606H12.9169ZM34.5 58.7253L34.4622 58.7353L24.8763 56.1281L24.2635 49.2136H15.623L16.8288 62.8266L34.4603 67.7565L34.5 67.7456V58.7253Z" fill="#EBEBEB"/>
<path d="M54.4779 36.2086L56.0316 18.6606H34.4704V27.3305H46.5988L45.8156 36.2086H34.4704V44.8785H45.0693L44.07 56.1227L34.4701 58.7326V67.7524L52.1156 62.8266L52.245 61.3618L54.2679 38.5367L54.4779 36.2086Z" fill="white"/>
</svg>
