<svg width="80" height="80" viewBox="0 0 80 80" fill="none" xmlns="http://www.w3.org/2000/svg">
<g clip-path="url(#clip0_2142_267)">
<path d="M-2 3V85H80V3H-2ZM40.7974 73.1465C39.5895 75.6015 37.2812 77.2156 34.6086 77.9937C30.5003 78.937 26.5727 78.3999 23.6486 76.6444C21.6913 75.4443 20.1638 73.5971 19.1288 71.4696C21.2092 70.1988 23.2844 68.9202 25.3648 67.6494C25.4198 67.673 25.5822 67.9691 25.8023 68.3516C26.5962 69.6853 27.2827 70.6285 28.6321 71.2888C29.9579 71.7395 32.8636 72.0303 33.9877 69.6984C34.6741 68.5141 34.4541 64.6258 34.4541 60.41C34.4541 53.7836 34.4855 47.2673 34.4855 40.5598H42.1547C42.1547 47.6027 42.194 54.664 42.1547 61.6964C42.1704 66.0066 42.5451 69.9263 40.7974 73.1465ZM72.6164 70.9796C69.9517 80.1003 55.0851 80.3964 49.1478 74.3701C47.8928 72.9526 47.1067 72.2111 46.3574 70.5735C49.5146 68.7577 49.5146 68.7577 52.5854 66.9813C54.2545 69.5464 55.7977 70.956 58.5725 71.5325C62.3376 71.991 66.1263 70.6993 65.2774 66.7009C64.4049 63.4336 57.569 62.6397 52.9156 59.1471C48.1915 55.9741 47.0858 48.2656 50.9662 43.8611C52.2605 42.2314 54.4667 41.0157 56.7803 40.4314L59.1961 40.1196C63.8337 40.0252 66.7342 41.2489 68.8618 43.6279C69.4539 44.228 69.936 44.8751 70.8426 46.2795C68.3718 47.8542 68.3797 47.8385 64.8398 50.1311C64.0826 48.5014 62.8302 47.4795 61.5044 47.0367C59.4476 46.4132 56.851 47.0918 56.3139 49.2665C56.1279 49.9372 56.1672 50.5608 56.4633 51.6665C57.2965 53.5688 60.0948 54.3941 62.6049 55.547C69.8312 58.4789 72.2706 61.6178 72.8706 65.3594C73.447 68.5796 72.7291 70.6678 72.6217 70.9796H72.6164Z" fill="#FFD600"/>
</g>
<defs>
<clipPath id="clip0_2142_267">
<rect width="80" height="80" fill="white"/>
</clipPath>
</defs>
</svg>
