<svg width="86" height="86" viewBox="0 0 86 86" fill="none" xmlns="http://www.w3.org/2000/svg">
<path fill-rule="evenodd" clip-rule="evenodd" d="M58.6271 67.2809C58.7407 67.0625 58.8495 66.8697 58.9422 66.6701C59.0007 66.5425 59.0907 66.5169 59.2177 66.5203C59.9789 66.5418 60.7402 66.5653 61.5021 66.5727C62.1491 66.5794 62.7975 66.5673 63.4452 66.5599C64.1748 66.5512 64.9045 66.5129 65.6334 66.5337C66.6043 66.562 67.5503 66.7521 68.4284 67.1841C69.4772 67.7008 70.2707 68.4875 70.8116 69.5242C71.1569 70.186 71.3571 70.8882 71.4371 71.6339C71.5527 72.7143 71.4767 73.7698 71.1341 74.8032C70.7095 76.0838 69.9032 77.064 68.7832 77.7984C67.9212 78.3634 66.9759 78.6974 65.9627 78.8882C64.8904 79.0904 63.8147 79.0252 62.739 79.0286C61.5592 79.0333 60.3801 79.0078 59.2002 78.9943C58.994 78.9923 58.9644 78.9533 59.0188 78.7565L59.0692 78.5751C59.1841 78.2136 59.2459 78.1975 59.6128 78.137C59.8667 78.096 60.1301 78.0006 60.3431 77.8595C60.4667 77.7776 60.5178 77.5639 60.5662 77.3993C60.6078 77.2555 60.6098 77.0976 60.6112 76.9458C60.628 74.6446 60.6454 72.3441 60.6549 70.0443C60.6569 69.4631 60.6434 68.8806 60.6112 68.3001C60.5883 67.8936 60.3713 67.6155 59.8876 67.5194C59.5113 67.4448 59.1324 67.387 58.7541 67.3205L58.6271 67.2809ZM69.4282 72.8527C69.3771 72.3945 69.3523 71.9322 69.2703 71.4807C69.0741 70.397 68.5998 69.453 67.7666 68.7133C66.4195 67.518 64.7976 67.3339 63.0978 67.4764C62.7108 67.5086 62.6275 67.641 62.6214 68.0387C62.612 68.6031 62.6026 69.1675 62.6019 69.7319C62.5993 71.5217 62.5993 73.3116 62.6019 75.1015C62.6026 75.6108 62.608 76.12 62.6228 76.628C62.6389 77.148 62.8277 77.5881 63.337 77.7897C64.1399 78.1075 64.9844 78.1451 65.8269 78.0154C67.1727 77.8091 68.114 77.0251 68.7456 75.85C69.2454 74.9174 69.3865 73.8995 69.4282 72.8527ZM72.6996 78.9473C72.6834 78.6685 72.7976 78.438 72.9387 78.2264C72.977 78.1693 73.1087 78.172 73.1994 78.1538L73.9694 78.0013C74.2415 77.9435 74.3846 77.7608 74.4229 77.494C74.4484 77.318 74.4726 77.14 74.4747 76.9619C74.4914 75.553 74.5076 74.1441 74.5143 72.7351C74.521 71.3242 74.5156 69.9133 74.5156 68.5023L74.5096 68.2329C74.482 67.7794 74.263 67.5442 73.8129 67.4777L72.8366 67.3292C72.7164 67.3131 72.6727 67.2553 72.7164 67.1485C72.7916 66.9664 72.8635 66.7776 72.9697 66.6137C73.0093 66.5532 73.143 66.5297 73.233 66.5317C73.6993 66.5384 74.1656 66.5734 74.6319 66.5727L78.6907 66.5485C79.4727 66.5478 80.2279 66.6842 80.9294 67.0585C81.7013 67.4697 82.1334 68.1059 82.257 68.9726C82.386 69.883 82.1098 70.6503 81.4447 71.2597C81.1712 71.511 80.8172 71.6749 80.5 71.8792L80.3966 71.9437C80.6908 72.0518 80.971 72.1452 81.2438 72.2568C82.042 72.584 82.6769 73.0953 83.0128 73.9116C83.2782 74.5559 83.2782 75.2278 83.121 75.8956C82.8764 76.9411 82.1878 77.6365 81.2922 78.1625C80.4516 78.6564 79.5419 78.9439 78.5731 78.9923C77.6795 79.0373 76.7819 79.0205 75.8863 79.0306L75.3676 79.0333C74.5049 79.0138 73.6415 78.9916 72.7782 78.9688L72.6996 78.9473ZM76.4197 74.8563H76.4285C76.4285 75.2983 76.4224 75.7404 76.4305 76.1825C76.4359 76.4688 76.4258 76.763 76.4876 77.0385C76.5803 77.4504 76.7684 77.8219 77.2307 77.9402C77.8549 78.1007 78.4925 78.133 79.124 78.0235C79.9148 77.8857 80.5457 77.4893 80.8917 76.7362C81.1484 76.1765 81.1867 75.5832 81.0987 74.9772C80.9818 74.179 80.5578 73.5998 79.853 73.2202C79.3908 72.971 78.8976 72.8185 78.3722 72.7983C77.7836 72.7761 77.1944 72.7748 76.6058 72.7566C76.4406 72.7519 76.4177 72.8359 76.4184 72.9716C76.4217 73.5992 76.4197 74.2274 76.4197 74.8563ZM77.6728 71.8496C77.9946 71.8335 78.3588 71.8288 78.7209 71.7925C79.4143 71.7233 79.9027 71.3746 80.1574 70.7115C80.287 70.3748 80.2817 70.0282 80.285 69.6781C80.2951 68.7664 79.763 68.0193 78.8969 67.7102C78.2284 67.4717 77.5391 67.4676 76.8457 67.4865C76.5649 67.4938 76.4392 67.6168 76.4352 67.8997L76.3935 71.5876C76.3915 71.734 76.4547 71.7972 76.5971 71.8019L77.6728 71.8496Z" fill="#94795D"/>
<path fill-rule="evenodd" clip-rule="evenodd" d="M7.08356 78.2385L7.03451 78.8727C6.57764 78.8727 6.15637 78.8693 5.73511 78.8741C4.94162 78.8821 4.14814 78.8949 3.35398 78.9063L3.27739 78.911C3.16384 78.8976 2.95758 78.8976 2.9522 78.864C2.91861 78.6752 2.92936 78.477 2.93809 78.2815C2.93876 78.2593 3.01603 78.2311 3.06105 78.2203L3.6785 78.0826C4.06348 77.9825 4.1992 77.8165 4.21734 77.4188C4.23817 76.9706 4.259 76.5218 4.26101 76.0737C4.26706 74.9705 4.26034 73.8686 4.26505 72.7654C4.26572 72.5074 4.17636 72.3152 3.93583 72.2104C3.64961 72.0841 3.36205 71.9605 3.07247 71.8436C2.9354 71.7885 2.75736 71.7582 2.77348 71.5741C2.78961 71.3867 2.96228 71.3376 3.12487 71.3007C3.79809 71.1468 4.47198 70.997 5.14319 70.8331C5.35953 70.78 5.56647 70.6906 5.82514 70.6006C5.83858 70.7403 5.86344 70.8734 5.86075 71.0064L5.82111 71.6386C5.82044 71.7099 5.85739 71.8053 5.91047 71.8449C5.94272 71.8698 6.05089 71.8247 6.10464 71.7831C6.67842 71.3464 7.2858 70.9694 7.9785 70.7497C9.05148 70.4091 9.97262 70.7249 10.6176 71.6501C10.8447 71.9759 10.8454 71.9759 11.1605 71.7481C11.7014 71.3551 12.2671 71.0084 12.9 70.78C14.2894 70.2781 15.6244 70.915 16.1075 72.3145C16.2835 72.8225 16.3507 73.3472 16.3494 73.8834L16.3366 77.443C16.336 77.7366 16.4334 77.9039 16.7129 77.9952C17.0266 78.098 17.3518 78.1686 17.7052 78.2613L17.6233 78.8734C17.2215 78.8734 16.852 78.8707 16.4824 78.8741C15.5794 78.8821 14.6764 78.8868 13.7741 78.9076C13.6169 78.9117 13.5759 78.8727 13.5678 78.7256C13.5416 78.2546 13.5376 78.2553 13.981 78.1491L14.1302 78.1108C14.5635 77.9926 14.708 77.8595 14.7114 77.4201C14.7214 76.1583 14.7476 74.8932 14.6838 73.6341C14.6173 72.328 13.5806 71.6326 12.3148 71.9672C11.9016 72.076 11.5273 72.2668 11.1793 72.5141C11.0617 72.5981 11.0396 72.6948 11.049 72.842C11.0846 73.3983 11.1067 73.9553 11.1115 74.5122C11.1195 75.4871 11.1074 76.462 11.1115 77.4376C11.1128 77.8326 11.2478 77.9838 11.6382 78.0752L12.218 78.2089L12.3255 78.2331C12.3336 78.4185 12.341 78.604 12.3322 78.7894C12.3269 78.9056 12.2368 78.9157 12.1361 78.9137C11.5724 78.8996 11.008 78.8808 10.4443 78.8821C9.7583 78.8835 9.07298 78.9029 8.38767 78.915H8.22642C8.22642 78.7182 8.21701 78.5301 8.23314 78.3426C8.2365 78.2976 8.31578 78.2344 8.3702 78.2203L9.04611 78.0772C9.333 78.0067 9.47006 77.8595 9.48619 77.5679C9.56278 76.2175 9.61787 74.8663 9.49089 73.5165C9.46603 73.2545 9.3807 72.9884 9.27186 72.7472C8.92584 71.9826 8.14714 71.6635 7.24884 71.8933C6.8222 72.0021 6.43722 72.1976 6.07306 72.4442C5.90106 72.5611 5.81909 72.7156 5.81909 72.9112C5.81909 74.2583 5.8238 75.6054 5.82783 76.9518L5.83522 77.4712C5.84328 77.8333 5.99714 78.0241 6.35659 78.1021C6.58772 78.1545 6.82153 78.1901 7.08356 78.2385Z" fill="#50382B"/>
<path fill-rule="evenodd" clip-rule="evenodd" d="M47.7038 70.7383C47.8079 71.2449 47.8059 71.7005 47.4337 72.0458C47.0642 72.3891 46.5966 72.2736 46.1403 72.197C46.1827 72.4375 46.2297 72.6418 46.2526 72.8487C46.4185 74.3866 45.7567 75.5281 44.3303 76.1805C43.7915 76.4264 43.2197 76.5178 42.6358 76.5648C42.3456 76.5877 42.0916 76.8094 42.0641 77.0479C42.0359 77.2898 42.1877 77.5384 42.4914 77.6109C42.8495 77.6963 43.2231 77.7205 43.5906 77.7628C44.3794 77.8528 45.1769 77.8938 45.9563 78.0349C47.1347 78.2472 47.7925 79.2758 47.5849 80.4597C47.4001 81.5132 46.79 82.2798 45.9395 82.8677C44.5063 83.8607 42.9342 84.151 41.2598 83.6444C40.3024 83.3541 39.6272 82.7246 39.394 81.706C39.2771 81.1961 39.4014 80.7345 39.7851 80.3885C40.2413 79.9786 40.7378 79.6131 41.2155 79.2261L41.37 79.0709L41.1927 78.9466C40.7055 78.7155 40.3159 78.3991 40.1647 77.8495C40.113 77.6634 40.1667 77.5411 40.3246 77.4457C40.5933 77.2837 40.8608 77.1191 41.1261 76.9518C41.2511 76.8739 41.3747 76.7933 41.491 76.7032C41.6495 76.5823 41.6354 76.4923 41.446 76.4224C41.0052 76.2598 40.6135 76.024 40.3098 75.6612C39.8025 75.0558 39.6588 74.3349 39.7004 73.5736C39.7656 72.3844 40.4113 71.601 41.4607 71.0971C42.7084 70.4985 43.9601 70.4608 45.232 71.0064C45.7023 71.208 46.1981 71.251 46.7027 71.216C47.0796 71.1892 47.4088 71.0467 47.7038 70.7383ZM43.1062 79.2584C42.1696 79.2503 41.876 79.3659 41.3264 79.9256C40.7109 80.5531 40.7143 81.4232 41.3284 82.0534C41.7947 82.5311 42.3765 82.7548 43.0235 82.822C43.7794 82.8999 44.5238 82.8684 45.2105 82.4901C45.9428 82.085 46.307 81.3325 46.1424 80.5746C46.006 79.9491 45.5451 79.6628 44.9841 79.4982C44.3458 79.3115 43.686 79.2759 43.1062 79.2584ZM41.2666 73.2733C41.3008 73.5333 41.3149 73.7967 41.3727 74.0514C41.5225 74.7111 41.8094 75.291 42.4659 75.5846C43.2365 75.9306 44.2208 75.7821 44.5581 74.7004C44.7892 73.9593 44.761 73.2236 44.4822 72.5007C44.3579 72.1782 44.1576 71.9054 43.8708 71.7052C43.2016 71.2382 41.9942 71.1764 41.5024 72.2084C41.3425 72.5437 41.28 72.9004 41.2666 73.2733Z" fill="#4F382B"/>
<path fill-rule="evenodd" clip-rule="evenodd" d="M31.8133 70.5724C31.8381 70.6873 31.8879 70.8177 31.8892 70.9487C31.8912 71.1979 31.8643 71.4472 31.8502 71.6965V71.9128L32.0612 71.7516C32.639 71.2759 33.2598 70.8707 33.9828 70.6524C35.2875 70.2593 36.591 70.9735 37.0163 72.3025C37.1775 72.8077 37.2413 73.3271 37.2474 73.8552C37.2608 75.0283 37.2689 76.2014 37.281 77.3745C37.285 77.7958 37.3334 77.871 37.7318 77.9926C37.9576 78.0618 38.1907 78.1102 38.4238 78.1465C38.5522 78.1666 38.6073 78.217 38.6006 78.3427L38.6019 78.4582C38.5972 78.944 38.5636 78.9662 38.0926 78.9648C36.9652 78.9628 35.8385 78.9695 34.7111 78.9789C34.3751 78.9816 34.3745 78.9917 34.3409 78.6598L34.3341 78.469C34.355 78.1827 34.3617 78.1854 34.6432 78.1438C34.8327 78.1156 35.0208 78.0719 35.2056 78.0235C35.3957 77.9745 35.4871 77.834 35.5126 77.6459C35.5254 77.5505 35.5422 77.4551 35.5415 77.3597C35.5254 76.0778 35.5462 74.7945 35.4763 73.5146C35.4199 72.4792 34.6298 71.8624 33.5904 71.933C33.0804 71.9686 32.6195 72.1386 32.1989 72.4322C31.9214 72.6263 31.8657 72.9065 31.867 73.2082C31.8724 74.4068 31.8838 75.6054 31.8966 76.8047C31.8993 77.0674 31.9067 77.3301 31.9315 77.5908C31.9577 77.8757 32.0578 77.9906 32.3373 78.0524C32.6047 78.1115 32.8775 78.1458 33.1631 78.1935L33.1873 78.4139C33.1967 78.9279 33.1429 78.9662 32.6437 78.9641C31.478 78.9594 30.3123 78.9668 29.1473 78.9796C28.9638 78.9823 28.8859 78.9245 28.8906 78.7458L28.8879 78.6692C28.8577 78.2063 28.8711 78.1888 29.3092 78.1135L29.5161 78.0719C29.9905 77.9651 30.1121 77.8387 30.1188 77.357C30.141 75.8312 30.149 74.306 30.1645 72.7802C30.1665 72.5612 30.0839 72.3912 29.8796 72.3005C29.5934 72.1742 29.3045 72.0539 29.0149 71.935C28.855 71.8691 28.6723 71.8275 28.6662 71.6064C28.6622 71.4506 28.8288 71.3128 29.0566 71.2665C29.5141 71.1737 29.9757 71.0965 30.4279 70.9829C30.878 70.8707 31.3201 70.7202 31.8133 70.5724Z" fill="#4F372B"/>
<path fill-rule="evenodd" clip-rule="evenodd" d="M57.0187 74.558C56.9972 75.983 56.627 77.1353 55.6192 78C54.3426 79.0972 52.3512 79.4701 50.7232 78.6497C50.0285 78.2997 49.5179 77.7628 49.1853 77.0661C48.6754 75.9945 48.5477 74.8677 48.8138 73.7134C49.0771 72.5719 49.7685 71.7449 50.8032 71.2094C51.8674 70.6591 52.9881 70.4441 54.1699 70.733C55.6649 71.0978 56.7392 72.3166 56.9529 73.8687C56.9911 74.1408 57.0059 74.4162 57.0187 74.558ZM55.2873 75.33L55.2295 75.3233C55.2295 75.1889 55.2369 75.0545 55.2281 74.9201C55.1791 74.083 54.991 73.2855 54.5059 72.5847C54.0456 71.9209 53.4188 71.5292 52.6031 71.4721C51.6901 71.4076 50.9228 71.9182 50.6534 72.8508C50.2489 74.2509 50.3859 75.6155 51.0968 76.8981C51.4065 77.4571 51.8654 77.8697 52.4802 78.0867C53.6849 78.5106 54.7531 77.9617 55.0669 76.7281C55.1825 76.2726 55.2161 75.7963 55.2873 75.33Z" fill="#4F382B"/>
<path fill-rule="evenodd" clip-rule="evenodd" d="M27.4252 74.6681C27.4004 75.6907 27.1592 76.636 26.5276 77.4578C25.851 78.3379 24.9212 78.8082 23.8636 79.0064C22.6133 79.2402 21.4388 79.0279 20.4344 78.1888C19.9573 77.7897 19.6315 77.2784 19.4165 76.6965C19.0638 75.7425 18.9757 74.7649 19.1928 73.7685C19.4245 72.7022 20.0265 71.8872 20.9598 71.3403C22.0388 70.7094 23.2032 70.4279 24.4468 70.7115C26.0459 71.077 26.969 72.119 27.3103 73.6966C27.3789 74.0151 27.3883 74.3443 27.4252 74.6681ZM25.6743 75.3427L25.628 75.336V75.1438C25.6018 74.2059 25.4183 73.3123 24.8587 72.5329C24.4441 71.9544 23.8892 71.5916 23.1776 71.4902C22.018 71.3249 21.2601 72.0129 21.0088 72.9475C20.681 74.1682 20.7838 75.3743 21.291 76.5319C21.6075 77.2535 22.1073 77.8159 22.8753 78.0886C24.0726 78.5139 25.157 77.9509 25.46 76.722C25.5715 76.2726 25.6051 75.8036 25.6743 75.3427Z" fill="#4F372B"/>
<path fill-rule="evenodd" clip-rule="evenodd" d="M55.3369 22.5374C56.1613 24.9205 56.7539 27.3534 56.9494 29.8742C57.1913 33.0025 57.0811 36.1092 56.4214 39.1857L56.3367 39.4317C56.1298 39.4323 55.9188 39.4061 55.7166 39.4377C54.008 39.7064 52.3014 39.9846 50.5942 40.2614C48.8292 40.5476 47.0628 40.8224 45.3012 41.1275C44.677 41.235 43.9043 41.1066 43.6524 41.9693L43.5314 42.0103L43.6168 36.8517L43.5301 24.4045L44.3525 24.2634C45.6969 24.0437 47.0413 23.82 48.3877 23.6056C49.9935 23.351 51.6007 23.1024 53.2078 22.8538C53.9173 22.745 54.6274 22.6435 55.3369 22.5374Z" fill="#439934"/>
<path fill-rule="evenodd" clip-rule="evenodd" d="M41.8343 57.0496C40.9669 56.3038 40.0693 55.591 39.2382 54.8062C34.7648 50.5868 31.4921 45.6197 29.8803 39.6312C29.4362 37.9838 29.1406 36.3088 29.0452 34.6063C28.978 33.4144 28.8819 32.2124 28.9666 31.0265C29.1903 27.8734 29.6465 24.7505 30.571 21.713L30.6221 21.6425C30.7121 21.762 30.8411 21.8682 30.8868 22.0033C31.7898 24.6612 32.6854 27.3218 33.577 29.9845C36.378 38.35 39.1757 46.7175 41.9814 55.0817C42.0365 55.2449 42.1783 55.3786 42.2804 55.5258L41.8343 57.0496Z" fill="#45A538"/>
<path fill-rule="evenodd" clip-rule="evenodd" d="M55.3369 22.5374C54.6268 22.6429 53.9166 22.745 53.2078 22.8539C51.6007 23.1025 49.9935 23.3511 48.3877 23.6057C47.042 23.8194 45.6976 24.0431 44.3525 24.2635L43.5301 24.4046L43.5234 23.8684C43.4958 23.4277 43.4501 22.9869 43.4441 22.5462L43.352 14.1114C43.3305 12.3518 43.2983 10.5922 43.2627 8.83319C43.2405 7.74005 43.217 6.64624 43.1679 5.55444C43.1411 4.9679 43.0463 4.38404 43.0087 3.79749C42.9865 3.46021 43.0161 3.12024 43.0235 2.78162C43.4427 3.59391 43.8533 4.41226 44.2839 5.21851C44.9645 6.49305 46.0496 7.43234 47.0272 8.45694C50.8878 12.509 53.6284 17.2175 55.3369 22.5374Z" fill="#46A037"/>
<path fill-rule="evenodd" clip-rule="evenodd" d="M43.5321 42.0103L43.6531 41.9694C43.905 41.1067 44.6777 41.235 45.3019 41.1275C47.0635 40.8225 48.8299 40.5477 50.5949 40.2615C52.3021 39.9853 54.0087 39.7072 55.7173 39.4377C55.9195 39.4062 56.1305 39.4324 56.3374 39.4317C56.0183 40.5712 55.767 41.7355 55.3618 42.8435C54.9016 44.0999 54.3453 45.3267 53.7547 46.5294C52.8719 48.3266 51.772 50.0036 50.4941 51.5402C49.5091 52.7241 48.4113 53.8199 47.3114 54.9009C46.7027 55.4982 45.9865 55.9853 45.3186 56.5228L45.1453 56.4046L44.5225 55.8725L43.8781 54.4588C43.434 52.8047 43.2016 51.121 43.1626 49.409L43.1747 49.1215L43.2627 47.8758C43.2916 47.4505 43.3306 47.0259 43.3487 46.6006C43.4132 45.0714 43.471 43.5409 43.5321 42.0103Z" fill="#409433"/>
<path fill-rule="evenodd" clip-rule="evenodd" d="M43.5321 42.0103C43.4717 43.5409 43.4139 45.0721 43.3487 46.6026C43.3306 47.0286 43.2923 47.4532 43.2627 47.8778L42.8704 48.0263C41.9983 45.4591 41.1255 42.9187 40.2722 40.3723C38.8606 36.159 37.4665 31.9396 36.0569 27.7249C34.9194 24.3239 33.7718 20.9249 32.6182 17.5286C32.5638 17.37 32.4093 17.245 32.3018 17.1046L34.8146 12.4841C34.9012 12.634 35.0148 12.7744 35.0692 12.9356C36.2316 16.3756 37.3919 19.8163 38.5421 23.2603C40.0391 27.7417 41.5259 32.2252 43.0215 36.7072C43.0813 36.886 43.1794 37.0512 43.2735 37.2521L43.6175 36.8517C43.5886 38.5717 43.5604 40.2903 43.5321 42.0103Z" fill="#4FAA41"/>
<path fill-rule="evenodd" clip-rule="evenodd" d="M32.3011 17.1046C32.4093 17.245 32.5638 17.37 32.6175 17.5286C33.7711 20.9249 34.9187 24.3232 36.0562 27.7249C37.4658 31.9396 38.8599 36.159 40.2715 40.3723C41.1248 42.9187 41.9976 45.4584 42.8697 48.0263L43.2621 47.8778L43.174 49.1235L43.0941 49.4104C42.9577 50.7736 42.8428 52.1395 42.6762 53.5001C42.5929 54.182 42.4148 54.8512 42.2798 55.5258C42.1783 55.3786 42.0359 55.2449 41.9808 55.0817C39.1744 46.7175 36.3774 38.35 33.5763 29.9845C32.6847 27.3218 31.7884 24.6612 30.8861 22.0033C30.8404 21.8682 30.7114 21.7621 30.6214 21.6425L32.3011 17.1046Z" fill="#4AA73C"/>
<path fill-rule="evenodd" clip-rule="evenodd" d="M43.6168 36.8516L43.2728 37.252C43.1787 37.0512 43.0807 36.8859 43.0209 36.7072C41.5253 32.2251 40.0384 27.7417 38.5415 23.2603C37.3912 19.8162 36.2309 16.3756 35.0685 12.9356C35.0141 12.7743 34.9006 12.6339 34.8139 12.484L37.9213 8.39636C38.0194 8.52671 38.1592 8.64294 38.2096 8.79008C39.0722 11.3163 39.9269 13.8446 40.7775 16.3749C41.5716 18.7385 42.3537 21.1049 43.1572 23.4645C43.211 23.6224 43.3984 23.7339 43.5234 23.8683L43.5301 24.4045L43.6168 36.8516Z" fill="#57AE47"/>
<path fill-rule="evenodd" clip-rule="evenodd" d="M43.5234 23.8684C43.3978 23.7347 43.211 23.6231 43.1572 23.4646C42.3544 21.1049 41.5716 18.7386 40.7775 16.3749C39.9269 13.8446 39.0722 11.3164 38.2096 8.79013C38.1592 8.64299 38.0194 8.52676 37.9213 8.39641C38.9318 7.40674 39.9107 6.38146 40.9622 5.43748C41.8968 4.59898 42.648 3.70001 42.6829 2.3744L42.7568 2.11035L43.0229 2.78088C43.0162 3.11951 42.9859 3.45948 43.0081 3.79676C43.0464 4.3833 43.1411 4.96716 43.1673 5.55371C43.2164 6.64551 43.2399 7.73932 43.2621 8.83246C43.2977 10.5914 43.3299 12.3511 43.3514 14.1107L43.4435 22.5454C43.4502 22.9869 43.4965 23.4276 43.5234 23.8684Z" fill="#60B24F"/>
<path fill-rule="evenodd" clip-rule="evenodd" d="M42.2804 55.5251C42.4155 54.8505 42.5935 54.1813 42.6768 53.4994C42.8434 52.1395 42.9583 50.7729 43.0947 49.4097L43.129 49.4043L43.1626 49.4103C43.2016 51.1223 43.434 52.806 43.8781 54.4602C43.7874 54.5798 43.6604 54.6852 43.6121 54.8196C43.2392 55.8718 42.8871 56.9327 42.5122 57.9841C42.4611 58.1279 42.3174 58.2401 42.2173 58.3658L41.8336 57.0489L42.2804 55.5251Z" fill="#A9AA88"/>
<path fill-rule="evenodd" clip-rule="evenodd" d="M42.2173 58.3664C42.3174 58.2401 42.4612 58.1286 42.5122 57.9848C42.8871 56.9333 43.2392 55.8724 43.6121 54.8203C43.6598 54.6859 43.7875 54.5804 43.8782 54.4608L44.5225 55.8744C44.3955 56.0545 44.2195 56.2178 44.1489 56.4187L42.9154 60.0414C42.8643 60.1872 42.6916 60.2893 42.5747 60.4123L42.2173 58.3664Z" fill="#B6B598"/>
<path fill-rule="evenodd" clip-rule="evenodd" d="M42.5747 60.4116C42.6909 60.2887 42.8643 60.1865 42.9153 60.0407L44.1489 56.418C44.2188 56.2171 44.3955 56.0538 44.5225 55.8738L45.146 56.4052C44.845 56.7029 44.6777 57.0469 44.7785 57.4816L44.589 58.1017C44.503 58.2079 44.378 58.3006 44.3357 58.4222C43.905 59.6558 43.4945 60.896 43.0605 62.1289C43.0054 62.2848 42.8529 62.4078 42.746 62.5462L42.5747 60.4116Z" fill="#C2C1A7"/>
<path fill-rule="evenodd" clip-rule="evenodd" d="M42.7454 62.5455C42.8529 62.4071 43.0054 62.2842 43.0598 62.1283C43.4938 60.8954 43.905 59.6551 44.335 58.4216C44.3774 58.3 44.5023 58.2079 44.5883 58.1011L44.327 60.9471C44.2571 61.0278 44.1563 61.0983 44.1227 61.1917L43.2533 63.683C43.1922 63.853 43.0753 64.0048 42.9839 64.1641C42.9026 64.0579 42.7575 63.9551 42.7507 63.8449C42.7252 63.4136 42.7434 62.9789 42.7454 62.5455Z" fill="#CECDB7"/>
<path fill-rule="evenodd" clip-rule="evenodd" d="M42.9846 64.1647C43.0759 64.0055 43.1928 63.8536 43.254 63.6836L44.1234 61.1923C44.157 61.0983 44.2584 61.0284 44.3276 60.9478L44.3344 62.8156L43.7088 64.4193L42.9846 64.1647Z" fill="#DBDAC7"/>
<path fill-rule="evenodd" clip-rule="evenodd" d="M43.7088 64.4193L44.3343 62.8156L44.4633 64.7129L43.7088 64.4193Z" fill="#EBE9DC"/>
<path fill-rule="evenodd" clip-rule="evenodd" d="M44.7778 57.4816C44.6777 57.0476 44.8443 56.7036 45.1453 56.4053L45.3186 56.5235L44.7778 57.4816Z" fill="#CECDB7"/>
<path fill-rule="evenodd" clip-rule="evenodd" d="M43.1626 49.411L43.129 49.4049L43.0947 49.4103L43.1747 49.1234L43.1626 49.411Z" fill="#4FAA41"/>
</svg>
