<svg width="76" height="76" viewBox="0 0 76 76" fill="none" xmlns="http://www.w3.org/2000/svg">
<path d="M58.5834 30.115C56.2085 29.2971 54.1123 27.8264 52.535 25.8717C50.7967 23.6937 48.5832 21.9423 46.064 20.7513C43.5447 19.5602 40.7864 18.9612 38 19C34.2519 18.7346 30.5412 19.8906 27.6071 22.238C24.6729 24.5853 22.7305 27.9517 22.1667 31.6667C23.2772 29.8086 24.9485 28.3508 26.9401 27.5029C28.9318 26.655 31.141 26.4609 33.25 26.9483C35.6209 27.7901 37.7137 29.2693 39.2984 31.2233C41.0463 33.3839 43.2639 35.1173 45.7827 36.2916C48.3014 37.4659 51.0548 38.0502 53.8334 38C57.5815 38.2655 61.2922 37.1094 64.2264 34.7621C67.1605 32.4147 69.1029 29.0484 69.6667 25.3333C68.5764 27.2136 66.9104 28.6935 64.9147 29.5545C62.919 30.4155 60.6993 30.612 58.5834 30.115ZM17.4167 45.885C19.7915 46.7029 21.8878 48.1736 23.465 50.1283C25.2034 52.3063 27.4169 54.0577 29.9361 55.2488C32.4554 56.4398 35.2137 57.0388 38 57C41.7482 57.2655 45.4589 56.1094 48.393 53.7621C51.3272 51.4147 53.2696 48.0484 53.8334 44.3333C52.7229 46.1914 51.0516 47.6493 49.06 48.4971C47.0683 49.345 44.859 49.5392 42.75 49.0517C40.3792 48.21 38.2864 46.7307 36.7017 44.7767C34.9491 42.6215 32.7305 40.8919 30.2129 39.7181C27.6953 38.5443 24.9442 37.9569 22.1667 38C18.4185 37.7346 14.7079 38.8906 11.7737 41.2379C8.83956 43.5853 6.89717 46.9517 6.33337 50.6667C7.42368 48.7864 9.08967 47.3065 11.0854 46.4455C13.0811 45.5845 15.3008 45.388 17.4167 45.885Z" fill="#5DE5E9"/>
</svg>
