<svg width="68" height="68" viewBox="0 0 68 68" fill="none" xmlns="http://www.w3.org/2000/svg">
<path d="M34 6.3656C40.7278 6.36588 47.236 8.76009 52.3601 13.1198C57.4841 17.4796 60.8897 23.5204 61.9674 30.1613C63.0451 36.8022 61.7246 43.61 58.2422 49.3664C54.7599 55.1228 49.3428 59.4523 42.9603 61.5802C41.5437 61.8281 41.0124 60.9782 41.0124 60.2343C41.0124 59.5614 41.0479 57.3302 41.0479 54.9573C48.1666 56.2677 50.0083 53.2219 50.575 51.6282C51.2037 50.0781 52.2005 48.7045 53.4791 47.626C54.4708 47.0948 55.8875 45.7844 53.5146 45.749C52.6085 45.8473 51.7395 46.1626 50.9812 46.6681C50.2229 47.1736 49.5976 47.8545 49.1583 48.6531C48.7708 49.3492 48.2497 49.9621 47.6249 50.4565C47.0001 50.9509 46.284 51.3172 45.5174 51.5343C44.7508 51.7515 43.9489 51.8152 43.1576 51.7219C42.3664 51.6286 41.6013 51.3801 40.9063 50.9906C40.7836 49.5502 40.1417 48.2034 39.1 47.2011C45.4041 46.4928 51.9916 44.0489 51.9916 33.2115C52.0314 30.3956 50.9924 27.6712 49.0875 25.5969C49.9537 23.1496 49.8523 20.4637 48.8041 18.0886C48.8041 18.0886 46.4313 17.3448 41.0125 20.9928C36.3763 19.7177 31.4819 19.7177 26.8458 20.9928C21.4271 17.3094 19.0541 18.0886 19.0541 18.0886C18.0058 20.4637 17.9044 23.1496 18.7708 25.5969C16.8602 27.6676 15.8202 30.3944 15.8666 33.2115C15.8666 44.0844 22.4896 46.4928 28.7937 47.2011C28.1175 47.8864 27.5968 48.7093 27.2668 49.6137C26.9368 50.5181 26.8053 51.483 26.8812 52.4428C26.8812 56.2324 26.9167 59.2781 26.9167 60.2344C26.9167 60.9782 26.3854 61.8636 24.9687 61.5803C18.5975 59.4351 13.196 55.0954 9.72846 49.3361C6.26089 43.5767 4.95296 36.7724 6.03814 30.1379C7.12332 23.5034 10.531 17.4705 15.6528 13.116C20.7746 8.76161 27.2773 6.3691 34 6.3656Z" fill="white"/>
</svg>
