<svg width="86" height="86" viewBox="0 0 86 86" fill="none" xmlns="http://www.w3.org/2000/svg">
<path d="M35.3279 45.5645C35.3279 45.5645 33.1215 46.8485 36.9008 47.2825C41.4789 47.8052 43.819 47.73 48.8635 46.7766C48.8635 46.7766 50.1931 47.6077 52.0448 48.328C40.7331 53.1742 26.4437 48.0471 35.3279 45.5645ZM33.9445 39.2388C33.9445 39.2388 31.4693 41.0724 35.2513 41.4634C40.1425 41.968 44.0038 42.0096 50.6903 40.7223C50.6903 40.7223 51.6128 41.6603 53.0661 42.1716C39.3921 46.1719 24.1613 42.4867 33.9445 39.2388Z" fill="#0074BD"/>
<path d="M45.5968 28.5083C48.3857 31.7185 44.8658 34.6049 44.8658 34.6049C44.8658 34.6049 51.9426 30.9519 48.6928 26.3758C45.6566 22.1101 43.3299 19.9916 55.9296 12.6843C55.9296 12.6843 36.1509 17.6226 45.5968 28.5083Z" fill="#EA2D2E"/>
<path d="M60.5575 50.2435C60.5575 50.2435 62.1915 51.5906 58.7582 52.632C52.2302 54.6093 31.5849 55.206 25.8504 52.7106C23.7904 51.8137 27.6557 50.5693 28.8712 50.308C30.139 50.0332 30.8633 50.0836 30.8633 50.0836C28.5708 48.4691 16.0451 53.2542 24.5013 54.6268C47.5627 58.3644 66.5385 52.9431 60.5575 50.2435ZM36.3901 32.6847C36.3901 32.6847 25.8894 35.1794 32.672 36.0864C35.5368 36.4694 41.2437 36.3814 46.5636 35.9352C50.91 35.5704 55.2718 34.7904 55.2718 34.7904C55.2718 34.7904 53.7406 35.4475 52.6313 36.204C41.966 39.0091 21.367 37.7023 27.2976 34.8347C32.3118 32.4086 36.3901 32.6847 36.3901 32.6847ZM55.2281 43.213C66.0688 37.5813 61.056 32.1687 57.5575 32.8977C56.7022 33.0764 56.3179 33.2309 56.3179 33.2309C56.3179 33.2309 56.6371 32.7311 57.2438 32.5167C64.1654 30.0845 69.4873 39.693 55.0118 43.4985C55.0118 43.4985 55.1777 43.348 55.2281 43.213Z" fill="#0074BD"/>
<path d="M48.6935 0.882202C48.6935 0.882202 54.6967 6.88809 42.9987 16.1217C33.618 23.5304 40.8594 27.7538 42.9947 32.5813C37.5189 27.6403 33.5024 23.2906 36.1966 19.2432C40.1533 13.3025 51.1149 10.4208 48.6935 0.882202Z" fill="#EA2D2E"/>
<path d="M37.4564 58.4793C47.8597 59.1445 63.8402 58.1091 64.2185 53.1863C64.2185 53.1863 63.4915 55.0521 55.6192 56.5329C46.7383 58.2045 35.7834 58.0103 29.2877 56.938C29.2877 56.938 30.618 58.0399 37.4564 58.4793Z" fill="#0074BD"/>
<path d="M63.7381 67.3091H63.4209V67.1317H64.2742V67.3091H63.9584V68.194H63.7374L63.7381 67.3091ZM65.4413 67.3534H65.4372L65.1228 68.194H64.9777L64.6653 67.3534H64.6619V68.194H64.4523V67.1317H64.7593L65.0489 67.8836L65.3392 67.1317H65.6442V68.194H65.4413V67.3534ZM35.7511 77.2905C34.7702 78.1411 33.7328 78.6194 32.8009 78.6194C31.4746 78.6194 30.7551 77.8226 30.7551 76.5467C30.7551 75.166 31.525 74.1548 34.6103 74.1548H35.7504L35.7511 77.2905ZM38.4594 80.3462V70.8882C38.4594 68.4701 37.0801 66.8751 33.7583 66.8751C31.8193 66.8751 30.1195 67.3548 28.7374 67.9649L29.1352 69.6398C30.2236 69.2401 31.6312 68.8692 33.0126 68.8692C34.9274 68.8692 35.7504 69.6398 35.7504 71.2349V72.4301H34.7937C30.1436 72.4301 28.0454 74.2341 28.0454 76.9471C28.0454 79.2846 29.4281 80.6129 32.0316 80.6129C33.7046 80.6129 34.9549 79.9222 36.122 78.911L36.3343 80.3468L38.4594 80.3462ZM47.4975 80.3462H44.12L40.0545 67.1176H43.0047L45.5282 75.2466L46.0893 77.6889C47.3631 74.1562 48.2661 70.5697 48.7176 67.1183H51.5872C50.8193 71.4727 49.4352 76.2544 47.4975 80.3462ZM60.4566 77.2905C59.4723 78.1411 58.4343 78.6194 57.5058 78.6194C56.1781 78.6194 55.4592 77.8226 55.4592 76.5467C55.4592 75.166 56.2312 74.1548 59.3131 74.1548H60.456L60.4566 77.2905ZM63.1663 80.3462V70.8882C63.1663 68.4701 61.7829 66.8751 58.4639 66.8751C56.5228 66.8751 54.8236 67.3548 53.4416 67.9649L53.84 69.6398C54.9284 69.2401 56.338 68.8692 57.7194 68.8692C59.6316 68.8692 60.4566 69.6398 60.4566 71.2349V72.4301H59.4999C54.8485 72.4301 52.7509 74.2341 52.7509 76.9471C52.7509 79.2846 54.1323 80.6129 56.7351 80.6129C58.4088 80.6129 59.6571 79.9222 60.8275 78.911L61.0412 80.3468L63.1663 80.3462ZM25.0757 82.5943C24.3051 83.7223 23.0567 84.6153 21.6915 85.1185L20.3551 83.5429C21.3945 83.0095 22.2847 82.1488 22.6993 81.3466C23.0567 80.6324 23.2052 79.7139 23.2052 77.5162V62.4111H26.0835V77.3086C26.0835 80.2481 25.8497 81.4366 25.0757 82.5943Z" fill="#EA2D2E"/>
</svg>
