<svg width="22" height="22" viewBox="0 0 22 22" fill="none" xmlns="http://www.w3.org/2000/svg">
<path d="M10.8334 0.307129C12.3366 0.307129 13.7447 0.592218 15.0579 1.1624C16.371 1.73257 17.52 2.50577 18.5049 3.48198C19.4897 4.4582 20.2672 5.60287 20.8374 6.91601C21.4076 8.22914 21.6927 9.63731 21.6927 11.1405C21.6927 12.6437 21.4076 14.0519 20.8374 15.365C20.2672 16.6781 19.4897 17.8271 18.5049 18.812C17.52 19.7968 16.371 20.5744 15.0579 21.1445C13.7447 21.7147 12.3366 21.9998 10.8334 21.9998C9.33018 21.9998 7.92201 21.7147 6.60888 21.1445C5.29574 20.5744 4.15107 19.7968 3.17485 18.812C2.19864 17.8271 1.42544 16.6781 0.855267 15.365C0.285089 14.0519 0 12.6437 0 11.1405C0 9.63731 0.285089 8.22914 0.855267 6.91601C1.42544 5.60287 2.19864 4.4582 3.17485 3.48198C4.15107 2.50577 5.29574 1.73257 6.60888 1.1624C7.92201 0.592218 9.33018 0.307129 10.8334 0.307129ZM7.46414 8.44512H4.74284V17.257H7.46414V8.44512ZM6.09053 7.74536C6.47065 7.74536 6.79462 7.61577 7.06243 7.3566C7.33024 7.09743 7.46414 6.77778 7.46414 6.39766C7.46414 6.01754 7.33024 5.6979 7.06243 5.43873C6.79462 5.17956 6.47065 5.04997 6.09053 5.04997C5.71042 5.04997 5.39077 5.17956 5.1316 5.43873C4.87243 5.6979 4.74284 6.01754 4.74284 6.39766C4.74284 6.77778 4.87243 7.09743 5.1316 7.3566C5.39077 7.61577 5.71042 7.74536 6.09053 7.74536ZM16.9498 12.1513C16.9498 11.5293 16.777 10.9202 16.4315 10.3241C16.0859 9.72802 15.6367 9.27447 15.0838 8.96346C14.5827 8.68701 13.9996 8.54015 13.3344 8.52287C12.6692 8.50559 12.0601 8.6179 11.5072 8.85979V8.44512H8.81184V17.257H11.5072V11.8662L12.6476 11.3219C12.7858 11.2528 12.9715 11.2183 13.2048 11.2183C13.4381 11.2183 13.6238 11.2615 13.762 11.3478C13.8657 11.3997 13.9694 11.512 14.073 11.6848C14.1767 11.8575 14.2285 12.013 14.2285 12.1513V17.257H16.9498V12.1513Z" fill="white"/>
</svg>
