<svg width="22" height="22" viewBox="0 0 22 22" fill="none" xmlns="http://www.w3.org/2000/svg">
<path d="M10.5165 0C11.9757 0 13.3427 0.27675 14.6174 0.83025C15.8922 1.38375 17.0075 2.13433 17.9636 3.08199C18.9196 4.02965 19.6744 5.14084 20.2279 6.41557C20.7814 7.69029 21.0582 9.05727 21.0582 10.5165C21.0582 11.9757 20.7814 13.3427 20.2279 14.6174C19.6744 15.8922 18.9196 17.0075 17.9636 17.9636C17.0075 18.9196 15.8922 19.6744 14.6174 20.2279C13.3427 20.7814 11.9757 21.0582 10.5165 21.0582C9.05727 21.0582 7.69029 20.7814 6.41557 20.2279C5.14084 19.6744 4.02965 18.9196 3.08199 17.9636C2.13433 17.0075 1.38375 15.8922 0.83025 14.6174C0.27675 13.3427 0 11.9757 0 10.5165C0 9.05727 0.27675 7.69029 0.83025 6.41557C1.38375 5.14084 2.13433 4.02965 3.08199 3.08199C4.02965 2.13433 5.14084 1.38375 6.41557 0.83025C7.69029 0.27675 9.05727 0 10.5165 0ZM15.7496 8.25218C16.236 7.88318 16.6637 7.4387 17.0327 6.91875C16.7979 7.01938 16.5589 7.10325 16.3157 7.17034C16.0725 7.23743 15.8167 7.28775 15.5483 7.32129C15.8167 7.15357 16.0515 6.9481 16.2528 6.7049C16.454 6.46169 16.5966 6.19752 16.6805 5.91238C16.4289 6.04657 16.1689 6.16817 15.9005 6.27719C15.6322 6.38621 15.3554 6.46588 15.0703 6.5162C14.8355 6.28138 14.5587 6.0885 14.24 5.93754C13.9214 5.78659 13.5691 5.71111 13.1834 5.71111C12.8311 5.71111 12.4999 5.7782 12.1896 5.91238C11.8793 6.04657 11.6109 6.23107 11.3845 6.46588C11.1581 6.7007 10.9777 6.97326 10.8436 7.28355C10.7094 7.59385 10.6423 7.92511 10.6423 8.27734C10.6423 8.37797 10.6465 8.47861 10.6549 8.57925C10.6633 8.67988 10.6758 8.77213 10.6926 8.856C9.63593 8.80568 8.65472 8.5457 7.749 8.07607C6.84327 7.60643 6.07172 6.97745 5.43436 6.18913C5.19954 6.57491 5.08213 7.00261 5.08213 7.47225C5.08213 7.90834 5.18696 8.31508 5.39662 8.69246C5.60628 9.06985 5.87884 9.37595 6.21429 9.61077C5.7782 9.57722 5.39243 9.4682 5.05698 9.2837V9.30886C5.05698 9.94622 5.25406 10.4955 5.64821 10.9568C6.04237 11.418 6.53297 11.7074 7.12002 11.8248C7.00261 11.8583 6.8894 11.8835 6.78037 11.9002C6.67135 11.917 6.55813 11.9254 6.44072 11.9254C6.35686 11.9254 6.27719 11.9212 6.20171 11.9128C6.12624 11.9044 6.04657 11.8919 5.9627 11.8751C6.13043 12.3783 6.42815 12.7976 6.85585 13.133C7.28355 13.4685 7.78254 13.6362 8.35281 13.6362C7.91672 13.9884 7.42612 14.261 6.88101 14.4539C6.3359 14.6468 5.76982 14.7432 5.18277 14.7432C5.06536 14.7432 4.95634 14.739 4.8557 14.7306C4.75507 14.7223 4.65443 14.7097 4.55379 14.6929C5.12407 15.0619 5.74046 15.347 6.40299 15.5483C7.06551 15.7496 7.75738 15.8502 8.47861 15.8502C9.6527 15.8502 10.6926 15.628 11.5983 15.1835C12.5041 14.739 13.263 14.1688 13.8752 13.4727C14.4874 12.7766 14.9529 11.9967 15.2716 11.1329C15.5902 10.2691 15.7496 9.41788 15.7496 8.57925V8.25218Z" fill="white"/>
</svg>
