<svg width="21" height="21" viewBox="0 0 21 21" fill="none" xmlns="http://www.w3.org/2000/svg">
<path d="M10.3484 12.773C10.0318 12.773 9.73597 12.7147 9.46101 12.598C9.18605 12.4814 8.94443 12.3189 8.73612 12.1106C8.52782 11.9023 8.36535 11.6565 8.2487 11.3732C8.13205 11.0899 8.07373 10.79 8.07373 10.4734C8.07373 10.1567 8.13205 9.86095 8.2487 9.58599C8.36535 9.31104 8.52782 9.06941 8.73612 8.86111C8.94443 8.65281 9.18605 8.49033 9.46101 8.37368C9.73597 8.25703 10.0318 8.19871 10.3484 8.19871C10.9816 8.19871 11.519 8.41951 11.9606 8.86111C12.4022 9.3027 12.623 9.84012 12.623 10.4734C12.623 10.79 12.5647 11.0899 12.448 11.3732C12.3314 11.6565 12.1689 11.9023 11.9606 12.1106C11.7523 12.3189 11.5107 12.4814 11.2357 12.598C10.9608 12.7147 10.665 12.773 10.3484 12.773ZM13.9978 10.4734C13.9978 10.3234 13.9895 10.1692 13.9728 10.0109C13.9561 9.85262 13.9311 9.70681 13.8978 9.57349H14.9227V14.5977C14.9227 14.731 14.881 14.8393 14.7977 14.9227C14.7144 15.006 14.606 15.0476 14.4727 15.0476H6.22402C6.09071 15.0476 5.98239 15.006 5.89907 14.9227C5.81575 14.8393 5.77409 14.731 5.77409 14.5977V9.57349H6.79893C6.7656 9.70681 6.74061 9.85262 6.72394 10.0109C6.70728 10.1692 6.69895 10.3234 6.69895 10.4734C6.69895 10.9733 6.79476 11.4482 6.9864 11.8981C7.17804 12.3481 7.43633 12.7397 7.76128 13.0729C8.08623 13.4062 8.47367 13.6687 8.9236 13.8603C9.37352 14.052 9.84845 14.1478 10.3484 14.1478C10.8483 14.1478 11.3232 14.052 11.7731 13.8603C12.2231 13.6687 12.6105 13.4062 12.9355 13.0729C13.2604 12.7397 13.5187 12.3481 13.7103 11.8981C13.902 11.4482 13.9978 10.9733 13.9978 10.4734ZM10.4484 0C11.8981 0 13.2562 0.274957 14.5227 0.82487C15.7892 1.37478 16.8973 2.1205 17.8472 3.06202C18.797 4.00354 19.5469 5.10753 20.0968 6.374C20.6468 7.64046 20.9217 8.99858 20.9217 10.4484C20.9217 11.8981 20.6468 13.2562 20.0968 14.5227C19.5469 15.7892 18.797 16.8973 17.8472 17.8472C16.8973 18.797 15.7892 19.5469 14.5227 20.0968C13.2562 20.6468 11.8981 20.9217 10.4484 20.9217C8.99858 20.9217 7.64046 20.6468 6.374 20.0968C5.10753 19.5469 4.00354 18.797 3.06202 17.8472C2.1205 16.8973 1.37478 15.7892 0.82487 14.5227C0.274957 13.2562 0 11.8981 0 10.4484C0 8.99858 0.274957 7.64046 0.82487 6.374C1.37478 5.10753 2.1205 4.00354 3.06202 3.06202C4.00354 2.1205 5.10753 1.37478 6.374 0.82487C7.64046 0.274957 8.99858 0 10.4484 0ZM16.2974 5.89907C16.2974 5.5158 16.1641 5.19085 15.8975 4.92423C15.6309 4.6576 15.3059 4.52429 14.9227 4.52429H5.77409C5.39082 4.52429 5.06587 4.6576 4.79924 4.92423C4.53262 5.19085 4.39931 5.5158 4.39931 5.89907V15.0476C4.39931 15.4309 4.53262 15.7559 4.79924 16.0225C5.06587 16.2891 5.39082 16.4224 5.77409 16.4224H14.9227C15.3059 16.4224 15.6309 16.2891 15.8975 16.0225C16.1641 15.7559 16.2974 15.4309 16.2974 15.0476V5.89907ZM14.4727 5.89907C14.606 5.89907 14.7144 5.9449 14.7977 6.03655C14.881 6.1282 14.9227 6.24068 14.9227 6.374V7.74878C14.9227 7.88209 14.881 7.99041 14.7977 8.07373C14.7144 8.15705 14.606 8.19871 14.4727 8.19871H13.0979C12.9646 8.19871 12.8521 8.15705 12.7605 8.07373C12.6688 7.99041 12.623 7.88209 12.623 7.74878V6.374C12.623 6.24068 12.6688 6.1282 12.7605 6.03655C12.8521 5.9449 12.9646 5.89907 13.0979 5.89907H14.4727Z" fill="white"/>
</svg>
