<svg width="102" height="102" viewBox="0 0 102 102" fill="none" xmlns="http://www.w3.org/2000/svg">
<path fill-rule="evenodd" clip-rule="evenodd" d="M95.625 19.125C95.625 12.0806 89.9194 6.375 82.875 6.375H19.125C12.0806 6.375 6.375 12.0806 6.375 19.125V82.875C6.375 89.9194 12.0806 95.625 19.125 95.625H82.875C89.9194 95.625 95.625 89.9194 95.625 82.875V19.125Z" fill="#161616"/>
<path fill-rule="evenodd" clip-rule="evenodd" d="M62.1722 39.8597C68.34 39.8597 73.3444 44.8641 73.3444 51.0319C73.3444 57.1997 68.34 62.2041 62.1722 62.2041C56.0044 62.2041 51 57.1997 51 51.0319C51 44.8641 56.0044 39.8597 62.1722 39.8597Z" fill="#0CC2FF"/>
<path fill-rule="evenodd" clip-rule="evenodd" d="M73.3125 28.6875C73.3125 22.5197 68.3241 17.5312 62.1563 17.5312H39.8119C33.6441 17.5312 28.6556 22.5197 28.6556 28.6875C28.6556 34.8553 33.6441 39.8438 39.8119 39.8438H62.1563C68.3241 39.8438 73.3125 34.8553 73.3125 28.6875Z" fill="#FF7568"/>
<path fill-rule="evenodd" clip-rule="evenodd" d="M50.9841 39.8597H39.8119C36.8475 39.8597 34.0106 41.0391 31.9228 43.1269C29.835 45.2147 28.6556 48.0516 28.6556 51.0159C28.6556 53.9803 29.835 56.8172 31.9228 58.905C34.0106 60.9928 36.8475 62.1722 39.8119 62.1722H50.9841V39.8597Z" fill="#AF5BFF"/>
<path fill-rule="evenodd" clip-rule="evenodd" d="M50.9841 17.5312H39.8119C36.8475 17.5312 34.0106 18.7106 31.9228 20.7984C29.835 22.8863 28.6556 25.7231 28.6556 28.6875C28.6556 31.6519 29.835 34.4888 31.9228 36.5766C34.0106 38.6644 36.8475 39.8438 39.8119 39.8438H50.9841V17.5312Z" fill="#FF4611"/>
<path fill-rule="evenodd" clip-rule="evenodd" d="M50.9999 62.1403H39.8278C36.8634 62.1403 34.0265 63.3197 31.9387 65.4075C29.8509 67.4953 28.6715 70.3322 28.6715 73.2966C28.6715 76.2609 29.8509 79.0978 31.9387 81.1856C34.0265 83.2734 36.8634 84.4528 39.8278 84.4528C42.7921 84.4528 45.629 83.2734 47.7168 81.1856C49.8046 79.0978 50.984 76.2609 50.984 73.2966V62.1403H50.9999Z" fill="#00E681"/>
</svg>
