<svg width="80" height="80" viewBox="0 0 80 80" fill="none" xmlns="http://www.w3.org/2000/svg">
<path d="M47.5025 31.6175C42.7181 31.6175 40.3406 34.115 40.3406 37.7112C40.3406 40.0262 41.4981 41.6662 43.0306 42.4169C42.28 43.105 41.655 43.7069 41.0919 44.3006C40.5281 44.8956 40.1844 45.5237 40.1844 46.2125C40.1844 47.0575 40.5281 47.8406 41.5606 48.2769C40.4663 49.3106 39.84 50.0606 39.84 51.4687C39.84 53.9394 41.9981 55.3787 47.6594 55.3787C53.1019 55.3787 56.26 53.3469 56.26 49.7494C56.26 45.5912 53.0706 45.4344 47.6594 45.0894L44.5944 44.9019L45.6269 43.2444C46.1888 43.4006 47.0969 43.5256 48.0988 43.5256C52.0388 43.5256 54.76 41.4931 54.76 38.0206C54.76 36.5819 54.0494 35.5812 53.4869 34.8612L56.25 34.6425V31.875H50.3806C49.6619 31.875 48.8475 31.6175 47.5025 31.6175ZM48.91 49.4369C50.4125 49.5306 51.6013 49.5931 51.6013 50.5956C51.6013 52.2825 49.1294 52.4094 47.3163 52.4094C45.1263 52.4094 43.5313 52.0331 43.5313 50.7825C43.5313 50.1562 43.9375 49.625 44.345 49.125L48.91 49.4369ZM47.6919 40.2419C45.6269 40.2419 44.7825 39.1775 44.7825 37.6456C44.7825 35.6125 46.0644 34.7675 47.785 34.7675C49.5675 34.7675 50.6313 35.7375 50.6313 37.5825C50.6313 39.21 49.4425 40.2419 47.6919 40.2419ZM61.9831 29.1781C63.7969 29.1781 64.8294 28.1456 64.8294 26.3619C64.8294 24.5806 63.7969 23.61 61.9831 23.61C60.2 23.61 59.1675 24.5806 59.1675 26.3619C59.1675 28.145 60.2 29.1781 61.9831 29.1781ZM64.375 44.6594V31.875H58.2919L57.9481 34.31L59.615 34.8562C59.9288 34.9494 60 35.1206 60 35.4644V44.6594C60 45.1294 59.7363 45.2231 59.2981 45.2862L57.5 45.505V48.125H66.875V45.505L65.0775 45.2862C64.6069 45.2231 64.375 45.1612 64.375 44.6594ZM78.3863 44.0094C77.635 44.2906 76.7413 44.5087 75.8644 44.5087C74.1763 44.5087 73.75 43.79 73.75 41.9444V34.375H78.125V31.25H73.9763C73.7256 31.25 73.75 31.2481 73.75 31.0294V26.875H70.7544C70.4106 30 68.75 31.3725 66.25 31.6862V34.375H68.7519C69.0025 34.375 68.75 34.5956 68.75 34.7825V42.9769C68.75 46.5125 70.2838 48.0131 74.005 48.0131C75.7888 48.0131 77.8219 47.4187 79.1675 46.7625L78.3863 44.0094ZM18.5863 24.2537C17.7631 23.43 16.4269 23.43 15.6031 24.2537L12.6338 27.2231L16.4006 30.99C17.2763 30.6944 18.28 30.8925 18.9781 31.5906C19.6794 32.2925 19.8763 33.305 19.5731 34.1837L23.2038 37.8144C24.0825 37.5119 25.0956 37.7075 25.7969 38.41C26.7781 39.39 26.7781 40.9787 25.7969 41.9594C24.8163 42.9406 23.2281 42.9406 22.2469 41.9594C21.5094 41.2212 21.2319 40.1381 21.6063 39.2294L18.125 35.8437V44.7544C18.125 44.8725 18.6844 45.03 18.8838 45.2287C19.8638 46.2087 19.9113 47.7975 18.9306 48.7794C17.95 49.7594 16.3844 49.7594 15.4044 48.7794C14.4244 47.7975 14.4363 46.2094 15.4169 45.2287C15.6594 44.9869 15.625 44.8037 16.25 44.6812V35.6881C15.625 35.5656 15.6706 35.3837 15.4288 35.1406C14.6863 34.3981 14.5075 33.3087 14.8881 32.3969L11.1744 28.6825L1.36877 38.4881C0.544395 39.3125 0.544395 40.6487 1.36877 41.4719L15.67 55.7725C16.4931 56.5956 17.8288 56.5956 18.6531 55.7725L32.8875 41.5375C33.7106 40.7137 33.7106 39.3775 32.8875 38.5537L18.5863 24.2537Z" fill="#F34F29"/>
</svg>
