<svg width="73" height="72" viewBox="0 0 73 72" fill="none" xmlns="http://www.w3.org/2000/svg">
<g clip-path="url(#clip0_2142_248)">
<path d="M3.04163 3.08362H69.9585V68.9165H3.04163V3.08362Z" fill="url(#paint0_radial_2142_248)"/>
<path d="M3.04163 3.08358H69.9585V68.9164H3.04163V3.08358ZM0 71.9928H73.0001V0.00732422H0V71.9928ZM43.8001 30.4012C43.8001 30.0319 43.8001 29.1399 43.648 27.417C43.648 27.171 43.6784 27.1095 43.8913 27.0172C45.7467 26.2481 50.0963 24.8946 55.0238 24.8946C55.2671 24.8946 55.3888 24.9561 55.3888 25.2022V29.6628C55.3888 29.9089 55.2975 29.9704 55.0542 29.9704C53.1379 29.8781 50.3701 30.1242 49.3054 30.5856V49.9664C49.3054 50.2123 49.2141 50.3355 48.9403 50.3355H44.165C43.9217 50.3355 43.7999 50.2432 43.7999 49.9664V30.4012H43.8001ZM24.3334 33.2006C25.0329 33.2621 25.5805 33.2621 26.7972 33.2621C30.356 33.2621 33.7019 32.0009 33.7019 27.1096C33.7019 23.2027 31.3293 21.2338 27.2534 21.2338C26.0368 21.2338 24.881 21.2953 24.3334 21.3261V33.2006ZM18.9496 16.8654C18.9496 16.6501 19.0105 16.4962 19.2538 16.4962C21.2004 16.4039 24.0596 16.3424 27.0709 16.3424C35.4963 16.3424 39.1767 21.0183 39.1767 27.0172C39.1767 34.8309 33.5801 38.1841 26.706 38.1841C25.55 38.1841 25.1547 38.1226 24.3334 38.1226V49.9356C24.3334 50.1817 24.2422 50.3047 23.9683 50.3047H19.2842C19.0409 50.3047 18.9191 50.2125 18.9191 49.9356V16.8654H18.9496Z" fill="#E579FF"/>
</g>
<defs>
<radialGradient id="paint0_radial_2142_248" cx="0" cy="0" r="1" gradientUnits="userSpaceOnUse" gradientTransform="translate(25.0808 17.8368) scale(50.8568 49.7991)">
<stop stop-color="#4B2D4F" stop-opacity="0.98"/>
<stop offset="1" stop-color="#180024"/>
</radialGradient>
<clipPath id="clip0_2142_248">
<rect width="73" height="72" fill="white"/>
</clipPath>
</defs>
</svg>
