<svg width="104" height="104" viewBox="0 0 104 104" fill="none" xmlns="http://www.w3.org/2000/svg">
<path d="M82.8013 53.6294C82.2928 53.0487 81.7569 52.4666 81.1936 51.883C81.5865 51.467 81.9678 51.0525 82.3376 50.6394C89.2926 42.822 92.2306 34.9787 89.5093 30.2684C86.9006 25.7487 79.1396 24.401 69.4199 26.2904C68.4637 26.4781 67.5118 26.689 66.5643 26.923C66.3823 26.299 66.1902 25.6779 65.9879 25.0597C62.6903 15.1234 57.3646 8.66236 51.9219 8.66669C46.7046 8.66669 41.6606 14.7204 38.4409 24.0847C38.1232 25.0091 37.8299 25.9394 37.5613 26.8754C36.9286 26.7194 36.293 26.5749 35.6546 26.442C25.4019 24.3404 17.1469 25.727 14.4299 30.446C11.8256 34.9657 14.5469 42.3627 21.0513 49.8247C21.6984 50.5614 22.3628 51.2836 23.0446 51.9914C22.2386 52.8147 21.4803 53.6424 20.7696 54.4657C14.4213 61.8237 11.8559 69.095 14.4559 73.5973C17.1426 78.2513 25.2806 79.7724 35.1909 77.8224C35.9941 77.6635 36.7928 77.4843 37.5873 77.285C37.8762 78.299 38.1954 79.3058 38.5449 80.3053C41.7516 89.479 46.7653 95.3333 51.9653 95.3333C57.3386 95.3333 62.7206 89.037 65.9836 79.4777C66.2436 78.7237 66.4819 77.9393 66.7159 77.1333C67.7415 77.3876 68.7743 77.6129 69.8143 77.8094C79.3606 79.6163 86.9396 78.1994 89.5353 73.6927C92.2176 69.0344 89.4486 61.2257 82.8013 53.6294ZM17.6366 32.292C19.3093 29.3887 26.0563 28.2534 34.9093 30.0734C35.4755 30.1889 36.0518 30.3189 36.6383 30.4634C35.7729 34.2869 35.162 38.1636 34.8096 42.068C31.617 44.313 28.573 46.7621 25.6966 49.4C25.0639 48.7442 24.4472 48.0726 23.8463 47.385C18.2693 40.9977 16.0679 35.0177 17.6366 32.292ZM34.4803 57.1134C32.2703 55.4364 30.2119 53.7204 28.3443 51.9957C30.2076 50.2797 32.2659 48.5724 34.4759 46.8997C34.395 48.6012 34.356 50.3042 34.3589 52.0087C34.3589 53.7131 34.3994 55.4147 34.4803 57.1134ZM34.4803 74.1867C30.7242 75.0232 26.8463 75.1613 23.0403 74.594C21.9969 74.5124 20.9813 74.2177 20.0563 73.728C19.1313 73.2383 18.3167 72.5641 17.6626 71.747C16.0809 69.017 18.1436 63.1757 23.5733 56.8837C24.2551 56.095 24.9599 55.3266 25.6879 54.5784C28.5657 57.2325 31.6158 59.6934 34.8183 61.945C35.1742 65.8987 35.7908 69.8246 36.6643 73.697C35.9421 73.879 35.2126 74.0437 34.4759 74.191L34.4803 74.1867ZM65.2469 39.351C63.7938 38.4352 62.3234 37.5498 60.8356 36.6947C59.368 35.8511 57.8846 35.0379 56.3853 34.255C58.9549 33.176 61.4813 32.253 63.9209 31.5034C64.4946 34.0953 64.9372 36.7145 65.2469 39.351ZM41.9466 25.285C44.7026 17.2684 48.7846 12.3717 51.9306 12.3717C55.2803 12.3674 59.6309 17.6497 62.4779 26.2254C62.6628 26.7858 62.8362 27.3491 62.9979 27.9154C59.2606 29.0736 55.6039 30.4778 52.0519 32.1187C48.5117 30.4577 44.8634 29.0375 41.1319 27.8677C41.3833 27.001 41.6548 26.1401 41.9466 25.285ZM40.2133 31.4557C42.7573 32.2564 45.2594 33.1849 47.7099 34.2377C44.6708 35.8035 41.7126 37.5094 38.8353 39.3554C39.1819 36.5907 39.6456 33.943 40.2133 31.4557ZM38.8396 64.649C40.2754 65.5706 41.7328 66.456 43.2119 67.3054C44.7199 68.172 46.2467 69.004 47.7923 69.8014C45.3241 70.8906 42.8017 71.8524 40.2349 72.683C39.6386 70.0309 39.1729 67.3512 38.8396 64.6534V64.649ZM62.4823 78.2817C61.3294 81.9521 59.5109 85.3791 57.1176 88.3914C56.5267 89.2549 55.765 89.988 54.8795 90.5455C53.9941 91.103 53.0037 91.473 51.9696 91.6327C48.8106 91.6327 44.7849 86.931 42.0463 79.0833C41.7227 78.156 41.4252 77.22 41.1536 76.2753C44.9028 75.066 48.5656 73.6037 52.1169 71.8987C55.6991 73.5528 59.3861 74.97 63.1539 76.141C62.9459 76.8603 62.722 77.5739 62.4823 78.2817ZM64.0509 72.5443C61.5853 71.7817 59.0243 70.8414 56.4156 69.745C57.8861 68.9737 59.3666 68.1576 60.8573 67.2967C62.3884 66.4127 63.8791 65.507 65.3293 64.5797C65.0397 67.2547 64.613 69.9131 64.0509 72.5443ZM65.9879 51.9914C65.9879 54.6231 65.9056 57.252 65.7409 59.878C63.6046 61.3254 61.3513 62.738 59.0069 64.09C56.6669 65.4377 54.3573 66.677 52.0866 67.7994C49.6975 66.6554 47.3546 65.4218 45.0579 64.0987C42.7757 62.7842 40.5455 61.3846 38.3673 59.8997C38.1651 57.2708 38.0639 54.639 38.0639 52.0044C38.0639 49.3726 38.1622 46.7422 38.3586 44.1134C42.7147 41.1393 47.2893 38.4985 52.0433 36.2137C54.4006 37.3606 56.7161 38.5898 58.9896 39.9014C61.2718 41.2129 63.5107 42.5981 65.7063 44.057C65.8941 46.6975 65.9879 49.3422 65.9879 51.9914ZM70.1306 29.9217C78.4593 28.3054 84.7339 29.393 86.3069 32.1187C87.9839 35.022 85.5833 41.4267 79.5729 48.178C79.2407 48.5507 78.8969 48.9248 78.5416 49.3004C75.6143 46.6541 72.5103 44.2102 69.2509 41.9857C68.9227 38.1245 68.3364 34.2896 67.4959 30.5067C68.3915 30.2871 69.2697 30.0921 70.1306 29.9217ZM69.5673 46.7567C71.7667 48.362 73.8813 50.0803 75.9026 51.9047C73.8907 53.7584 71.7832 55.5056 69.5889 57.1394C69.6554 55.4234 69.6886 53.7074 69.6886 51.9914C69.6886 50.2465 69.6482 48.5016 69.5673 46.7567ZM86.3329 71.8424C84.7556 74.5767 78.6716 75.7164 70.5033 74.1737C69.5673 73.9975 68.6082 73.7866 67.6259 73.541C68.4461 69.7092 69.0064 65.8264 69.3029 61.919C72.5565 59.6571 75.6506 57.174 78.5633 54.4874C79.0746 55.016 79.5599 55.5418 80.0193 56.0647C82.6238 58.8968 84.6847 62.1843 86.0989 65.7627C86.5516 66.7062 86.8059 67.7326 86.8461 68.7783C86.8864 69.824 86.7117 70.8668 86.3329 71.8424ZM48.1173 45.2314C46.7918 45.9967 45.723 47.138 45.046 48.5107C44.3691 49.8835 44.1144 51.4262 44.3142 52.9437C44.514 54.4612 45.1592 55.8854 46.1684 57.0362C47.1775 58.187 48.5052 59.0128 49.9837 59.4091C51.4621 59.8053 53.0248 59.7543 54.4742 59.2625C55.9237 58.7706 57.1947 57.8601 58.1267 56.6459C59.0586 55.4317 59.6096 53.9685 59.71 52.4412C59.8104 50.9138 59.4556 49.3911 58.6906 48.0654C58.1825 47.1849 57.506 46.4132 56.6996 45.7943C55.8933 45.1753 54.9729 44.7213 53.991 44.4581C53.0091 44.195 51.985 44.1278 50.9772 44.2605C49.9694 44.3931 48.9976 44.723 48.1173 45.2314Z" fill="#6563FF"/>
</svg>
